<?xml version="1.0" encoding="UTF-8"?>
<svg version="1.1" xmlns="http://www.w3.org/2000/svg" width="200" height="200">
<path d="M0 0 C2.0625 1.27734375 2.0625 1.27734375 4 2.9375 C4.639375 3.46214844 5.27875 3.98679687 5.9375 4.52734375 C11.62227157 11.34260966 13.9376601 19.39274913 15.6875 27.9375 C15.88666016 28.84951172 16.08582031 29.76152344 16.29101562 30.70117188 C17.67194348 37.10777158 18.86051766 43.54657809 20 50 C21.23133667 50.40726318 21.23133667 50.40726318 22.48754883 50.82275391 C25.58989824 51.85446901 28.68876894 52.89560845 31.78588867 53.94287109 C33.11603037 54.39057811 34.44738176 54.83471029 35.7800293 55.27490234 C52.77680819 60.89568271 66.9037224 68.00094589 75.375 84.5 C80.74097084 95.60599883 83.68054859 107.77771321 85 120 C86.00804687 120.11085938 87.01609375 120.22171875 88.0546875 120.3359375 C104.84850872 122.75674448 120.35330529 133.21588116 132 145 C132.66773438 145.65742188 133.33546875 146.31484375 134.0234375 146.9921875 C140.43819209 153.75525455 146.05007755 163.16543845 149 172 C148.81265411 175.12243153 148.49101602 177.22471155 146.8125 179.875 C144.03740382 181.59747349 142.18506522 181.5308442 139 181 C137.125 178.5 137.125 178.5 136 176 C135.30132812 176.3609375 134.60265625 176.721875 133.8828125 177.09375 C132.97273437 177.5578125 132.06265625 178.021875 131.125 178.5 C130.22007812 178.9640625 129.31515625 179.428125 128.3828125 179.90625 C126 181 126 181 124 181 C124.33 181.99 124.66 182.98 125 184 C122.05241142 188.55536417 122.05241142 188.55536417 120 190 C111.93836229 191.06282461 105.13809835 185.7493806 98.6953125 181.46875 C81.86111905 168.21773829 78.37016152 145.78361991 75 126 C74.04480469 125.90847656 73.08960937 125.81695312 72.10546875 125.72265625 C54.6072389 123.19528068 37.18883638 112.3209418 26 99 C17.83647189 87.72314044 10 72.28503768 10 58 C9.16082031 57.79697266 9.16082031 57.79697266 8.3046875 57.58984375 C-6.27441684 53.67551831 -18.74690075 46.06255446 -29 35 C-29.67289063 34.3090625 -30.34578125 33.618125 -31.0390625 32.90625 C-36.66044064 26.9471919 -36.66044064 26.9471919 -38.1875 22.6875 C-38 20 -38 20 -36.9375 17.625 C-35 16 -35 16 -32 15.5625 C-28.6873265 16.04559822 -28.13144892 16.60846356 -26 19 C-23.33392298 17.32177373 -20.69668517 15.60277481 -18.0625 13.875 C-17.30775391 13.400625 -16.55300781 12.92625 -15.77539062 12.4375 C-11.23471994 9.53818022 -11.23471994 9.53818022 -9.10546875 4.75390625 C-9.07066406 3.84511719 -9.03585938 2.93632812 -9 2 C-5.98198392 -1.34137495 -4.1658807 -1.19737889 0 0 Z M-5 11 C-10.61 15.62 -16.22 20.24 -22 25 C-16.88744384 31.60390925 -16.88744384 31.60390925 -13 34 C-11.01208727 31.75722666 -9.0347098 29.50651246 -7.0625 27.25 C-6.49853516 26.61578125 -5.93457031 25.9815625 -5.35351562 25.328125 C-4.81533203 24.709375 -4.27714844 24.090625 -3.72265625 23.453125 C-3.22515869 22.88754883 -2.72766113 22.32197266 -2.21508789 21.73925781 C-0.75905685 19.65511774 -0.02125902 18.57144262 0 16 C-1.65 14.35 -3.3 12.7 -5 11 Z M2 23 C0.27425115 25.31279846 -1.40551345 27.63873718 -3.0625 30 C-3.53494141 30.66773438 -4.00738281 31.33546875 -4.49414062 32.0234375 C-5.66571356 33.68020731 -6.83323159 35.33984313 -8 37 C-5.03866935 40.1638148 -3.37426366 41.5139707 1 42 C4.60618855 35.83073529 5.3977073 31.82147498 3.578125 24.87109375 C3.38734375 24.25363281 3.1965625 23.63617187 3 23 C2.67 23 2.34 23 2 23 Z M6 43 C6 43.99 6 44.98 6 46 C6.66 45.67 7.32 45.34 8 45 C7.34 44.34 6.68 43.68 6 43 Z M24 66 C24.25662245 67.44010481 24.53090821 68.8770687 24.8125 70.3125 C24.96332031 71.11300781 25.11414063 71.91351563 25.26953125 72.73828125 C26.07572236 75.23445587 27.02052002 76.32422106 29 78 C30.62672685 76.87749844 32.25132582 75.75191267 33.875 74.625 C34.77992187 73.99851562 35.68484375 73.37203125 36.6171875 72.7265625 C39.03494125 71.0701905 39.03494125 71.0701905 41 69 C32.81176197 64.91536771 32.81176197 64.91536771 24 66 Z M42.5234375 74.40625 C41.853125 74.90253906 41.1828125 75.39882812 40.4921875 75.91015625 C39.44417969 76.69712891 39.44417969 76.69712891 38.375 77.5 C37.66859375 78.02464844 36.9621875 78.54929687 36.234375 79.08984375 C34.48638413 80.38902616 32.74180374 81.69254078 31 83 C32.31224548 86.93673644 33.91910327 89.22719294 37 92 C37.97582031 91.15695313 38.95164062 90.31390625 39.95703125 89.4453125 C41.24211231 88.33845436 42.5272727 87.23168833 43.8125 86.125 C44.77639648 85.29162109 44.77639648 85.29162109 45.75976562 84.44140625 C46.69272461 83.63896484 46.69272461 83.63896484 47.64453125 82.8203125 C48.21534424 82.32805176 48.78615723 81.83579102 49.37426758 81.32861328 C51 80 51 80 54 78 C54 77.34 54 76.68 54 76 C48.30399932 71.60522701 48.30399932 71.60522701 42.5234375 74.40625 Z M58 81 C57.35933594 81.58007812 56.71867187 82.16015625 56.05859375 82.7578125 C51.09459194 87.24094975 46.10193044 91.67445028 41 96 C42.11666174 99.34998521 42.74694925 99.79340222 45.5625 101.6875 C46.20316406 102.12449219 46.84382813 102.56148437 47.50390625 103.01171875 C47.99761719 103.33785156 48.49132812 103.66398437 49 104 C53.07376031 102.38989473 55.76507069 99.46177729 58.75 96.375 C59.25660156 95.859375 59.76320313 95.34375 60.28515625 94.8125 C61.52803902 93.54616661 62.76465276 92.2736856 64 91 C62.79157144 86.56909529 61.48331435 84.01887244 58 81 Z M63.49609375 98.40625 C62.4740319 99.434992 61.45462036 100.46637207 60.4375 101.5 C59.91736328 102.02464844 59.39722656 102.54929687 58.86132812 103.08984375 C57.57198309 104.39101763 56.2857063 105.69523051 55 107 C58.21574716 109.55162546 61.04912191 110.83269511 65 112 C67.70800597 109.96050874 67.70800597 109.96050874 70 107 C69.92692067 102.83447809 69.14492003 99.57486672 67 96 C65.54138936 95.8845156 65.54138936 95.8845156 63.49609375 98.40625 Z M71 113 C71 113.66 71 114.32 71 115 C71.66 114.67 72.32 114.34 73 114 C72.34 113.67 71.68 113.34 71 113 Z M88 131 C88 132.65 88 134.3 88 136 C88.99 135.01 89.98 134.02 91 133 C90.01 132.34 89.02 131.68 88 131 Z M97 135 C94.72202179 137.17233285 92.70168555 139.34371036 91 142 C90.91161571 147.03790425 92.55998234 150.6504033 95 155 C95.66 154.34 96.32 153.68 97 153 C100.66666667 149.33333333 104.33333333 145.66666667 108 142 C105.57089298 139.39892081 103.58372845 137.53220325 100.25 136.25 C99.1775 135.8375 98.105 135.425 97 135 Z M111.39599609 146.37695312 C110.77805176 147.00537109 110.16010742 147.63378906 109.5234375 148.28125 C108.853125 148.95800781 108.1828125 149.63476562 107.4921875 150.33203125 C106.44417969 151.40517578 106.44417969 151.40517578 105.375 152.5 C104.66859375 153.21542969 103.9621875 153.93085938 103.234375 154.66796875 C101.48504407 156.44093929 99.74053464 158.21840011 98 160 C99.26941497 163.91402949 100.51167694 165.79072873 104 168 C106.25177648 166.08538791 108.50145533 164.16840121 110.75 162.25 C111.38421875 161.71117187 112.0184375 161.17234375 112.671875 160.6171875 C115.90758668 157.85335044 119.04757267 155.07171733 122 152 C120.88121617 150.82737096 119.75476949 149.66204862 118.625 148.5 C117.99851563 147.8503125 117.37203125 147.200625 116.7265625 146.53125 C114.45989453 144.52099243 113.71055428 144.39002646 111.39599609 146.37695312 Z M120.3125 161.625 C119.42433594 162.34945312 118.53617188 163.07390625 117.62109375 163.8203125 C114.38307701 166.51302985 111.17790946 169.23660047 108 172 C110.45705917 174.6325634 112.54104856 176.84701619 116 178 C120.41999004 177.53636468 123.54393227 175.71520577 127.3125 173.4375 C128.38113281 172.79683594 129.44976562 172.15617188 130.55078125 171.49609375 C131.76314453 170.75552734 131.76314453 170.75552734 133 170 C132.45693878 166.46705118 131.67925677 164.0705604 129.5625 161.1875 C129.13066406 160.58292969 128.69882813 159.97835937 128.25390625 159.35546875 C127.84011719 158.90816406 127.42632812 158.46085938 127 158 C123.96070329 158 122.63495004 159.72578358 120.3125 161.625 Z " fill="#8DDAEA" transform="translate(45,6)"/>
<path d="M0 0 C1.65 0 3.3 0 5 0 C5 0.66 5 1.32 5 2 C6.32 2.33 7.64 2.66 9 3 C9 3.99 9 4.98 9 6 C9.556875 5.96519531 10.11375 5.93039063 10.6875 5.89453125 C15.65234044 5.7184136 19.40236603 6.19701504 23.96484375 8.15625 C26.13309072 9.05517773 28.30588077 9.67102448 30.5625 10.3125 C34.67631006 11.65072737 37.30956796 13.64626063 40.4375 16.5859375 C42.09234547 18.17854771 42.09234547 18.17854771 44.75 19.625 C49.8104301 22.71748506 51.18745853 27.73469673 53.0625 33.0625 C55.06847978 38.74462848 55.06847978 38.74462848 58 44 C58.47070312 45.92602539 58.47070312 45.92602539 58.78125 48.09765625 C58.95901978 49.29213379 58.95901978 49.29213379 59.14038086 50.51074219 C59.31839233 51.7738623 59.31839233 51.7738623 59.5 53.0625 C59.76044505 54.79836866 60.02214981 56.53404882 60.28515625 58.26953125 C60.40906738 59.09662598 60.53297852 59.9237207 60.66064453 60.77587891 C61.78511368 68.14560115 63.57147582 75.27143183 65.53442383 82.45605469 C66.73848686 86.89713185 67.71600671 91.33664078 68.5703125 95.85546875 C69.55030262 100.74651036 70.99657473 105.43664243 73 110 C73.24234375 110.60714844 73.4846875 111.21429688 73.734375 111.83984375 C78.28298726 122.23382177 88.16343015 127.37671333 97.80078125 132.484375 C98.88939453 133.23460937 98.88939453 133.23460937 100 134 C100 134.99 100 135.98 100 137 C90.89741256 136.59544056 82.51826049 131.3476936 75.97265625 125.21875 C62.70919949 110.30064418 59.25474556 92.10610181 56 73 C55.05253906 72.91363281 54.10507813 72.82726562 53.12890625 72.73828125 C48.1092592 72.01722 43.60691323 70.09755693 38.9375 68.1875 C38.06544922 67.84396484 37.19339844 67.50042969 36.29492188 67.14648438 C29.7517377 64.50642596 24.07284488 61.72637594 19.5625 56.125 C17.28952425 53.39843707 15.04039924 51.12869772 12.25 48.9375 C8.80597148 46.10214766 7.46569486 43.24280091 6 39 C5.4121875 37.5459375 5.4121875 37.5459375 4.8125 36.0625 C4.544375 35.381875 4.27625 34.70125 4 34 C9.92620927 36.50724238 13.89705185 40.46865765 17 46 C20.55334505 50.83649743 23.65657624 53.27590161 29 56 C29 56.66 29 57.32 29 58 C34.82254243 59.96818336 39.83381819 61.40214229 46 61 C46.103125 60.401875 46.20625 59.80375 46.3125 59.1875 C47 57 47 57 48.625 55.6875 C50.38841178 53.9094049 50.38841178 53.9094049 49.8125 50.5 C49.19629245 46.91290967 49.19629245 46.91290967 47 44 C46.03900391 45.06541016 46.03900391 45.06541016 45.05859375 46.15234375 C44.19363281 47.07144531 43.32867187 47.99054688 42.4375 48.9375 C41.16712891 50.31228516 41.16712891 50.31228516 39.87109375 51.71484375 C36.50252101 54.39595267 34.2418894 54.75356143 30 55 C31.47221435 49.97769914 34.4489651 47.19721778 38.125 43.6875 C38.68832031 43.13771484 39.25164062 42.58792969 39.83203125 42.02148438 C41.21462058 40.67404562 42.60640916 39.33605727 44 38 C42.90931332 34.22454612 42.0916909 31.52956528 39 29 C38.3709375 29.58007812 37.741875 30.16015625 37.09375 30.7578125 C31.92287456 35.47701509 26.70336945 39.93754411 21 44 C20.01 43.34 19.02 42.68 18 42 C18.26410694 38.44084462 18.80499115 37.19119761 21.3984375 34.6484375 C22.38070312 33.89820313 23.36296875 33.14796875 24.375 32.375 C28.20173943 29.47078225 28.20173943 29.47078225 31.7265625 26.2265625 C33 25 33 25 35 25 C35 24.34 35 23.68 35 23 C31.62902617 21.50178941 29.79557881 21 26 21 C24.20975251 21.88879362 24.20975251 21.88879362 22.546875 23.1875 C21.928125 23.63867188 21.309375 24.08984375 20.671875 24.5546875 C20.03765625 25.03164062 19.4034375 25.50859375 18.75 26 C18.1003125 26.47695312 17.450625 26.95390625 16.78125 27.4453125 C15.18126336 28.62177327 13.58978359 29.80978769 12 31 C10.4375 29.75 10.4375 29.75 9 28 C8.96484375 26.078125 8.96484375 26.078125 10 24 C12.50390625 21.859375 12.50390625 21.859375 15.5625 19.75 C16.57441406 19.04359375 17.58632812 18.3371875 18.62890625 17.609375 C19.41136719 17.07828125 20.19382812 16.5471875 21 16 C14.75690073 13.22528921 9.80203375 12.62365797 3 13 C2.49487756 11.39743892 1.99608373 9.79288208 1.5 8.1875 C1.2215625 7.29417969 0.943125 6.40085937 0.65625 5.48046875 C0 3 0 3 0 0 Z M52 60 C52 60.66 52 61.32 52 62 C52.66 61.67 53.32 61.34 54 61 C53.34 60.67 52.68 60.34 52 60 Z " fill="#6EC5DC" transform="translate(64,59)"/>
<path d="M0 0 C2.5689968 0.54036478 5.127771 1.1060472 7.6875 1.6875 C8.40873047 1.83638672 9.12996094 1.98527344 9.87304688 2.13867188 C14.95231471 3.32151507 17.48392343 4.97710159 21 9 C24.44450737 11.29633824 26.93812283 11.54016485 31 12 C31 12.66 31 13.32 31 14 C33.475 14.495 33.475 14.495 36 15 C36 15.66 36 16.32 36 17 C36.66 17 37.32 17 38 17 C39.55078125 18.609375 39.55078125 18.609375 41.3125 20.75 C43.36672094 23.17926542 45.18056459 25.142772 47.6875 27.125 C52.65426424 31.15210614 54.5344783 35.91244833 56 42 C56.20625 42.804375 56.4125 43.60875 56.625 44.4375 C56.74875 44.953125 56.8725 45.46875 57 46 C57.66 46 58.32 46 59 46 C60.16461426 49.49384279 60.13568319 52.33655389 60 56 C59 57 59 57 56.125 57.375 C55.09375 57.25125 54.0625 57.1275 53 57 C51.125 54.5 51.125 54.5 50 52 C49.34773438 52.33773437 48.69546875 52.67546875 48.0234375 53.0234375 C36.31213873 59 36.31213873 59 30 59 C30.35608086 56.25224272 30.73843788 55.2210308 32.890625 53.40234375 C33.66921875 52.91894531 34.4478125 52.43554688 35.25 51.9375 C36.06082031 51.42832031 36.87164062 50.91914063 37.70703125 50.39453125 C38.84205078 49.70423828 38.84205078 49.70423828 40 49 C41.4540625 48.071875 41.4540625 48.071875 42.9375 47.125 C45 46 45 46 47 46 C46.24163557 44.34838419 45.46787924 42.70382862 44.6875 41.0625 C44.25824219 40.14597656 43.82898438 39.22945312 43.38671875 38.28515625 C42.14921339 35.69030588 42.14921339 35.69030588 39 35 C36.61010499 36.48791105 36.61010499 36.48791105 34.1875 38.625 C33.300625 39.35976562 32.41375 40.09453125 31.5 40.8515625 C30.04743108 42.09986392 28.6043997 43.35979165 27.1875 44.6484375 C24.76229024 46.83365255 23.42978856 47.95328385 20.125 48.3125 C19.42375 48.209375 18.7225 48.10625 18 48 C17.67 46.68 17.34 45.36 17 44 C22.95711729 38.61662147 28.9385027 33.26571414 35 28 C33.02 26.02 31.04 24.04 29 22 C26.06769807 23.32120828 24.01335101 24.74638197 21.765625 27.0390625 C21.19199219 27.61914062 20.61835938 28.19921875 20.02734375 28.796875 C19.14755859 29.70179688 19.14755859 29.70179688 18.25 30.625 C17.64800781 31.23601562 17.04601562 31.84703125 16.42578125 32.4765625 C14.94594695 33.97988624 13.47235324 35.48934856 12 37 C10.4934082 35.62133789 10.4934082 35.62133789 9 34 C9.19128551 30.47892966 10.98633066 28.57795079 13.3125 26.0625 C15.98762707 23.11765847 18.54906148 20.1372013 21 17 C17.7 15.35 14.4 13.7 11 12 C9.02 14.31 7.04 16.62 5 19 C4.34 18.67 3.68 18.34 3 18 C2.25 15.125 2.25 15.125 2 12 C2.66 11.01 3.32 10.02 4 9 C3.34 8.62875 2.68 8.2575 2 7.875 C0 6 0 6 -0.125 2.8828125 C-0.08375 1.93148437 -0.0425 0.98015625 0 0 Z " fill="#5CB8D6" transform="translate(131,130)"/>
<path d="M0 0 C0 4 0 4 -1.46875 5.64746094 C-2.1390625 6.17114258 -2.809375 6.69482422 -3.5 7.234375 C-4.5828125 8.09482422 -4.5828125 8.09482422 -5.6875 8.97265625 C-6.450625 9.55917969 -7.21375 10.14570313 -8 10.75 C-8.763125 11.35199219 -9.52625 11.95398438 -10.3125 12.57421875 C-12.20002591 14.0606454 -14.09575275 15.53509703 -16 17 C-15.07347299 18.17539996 -14.13336613 19.34010577 -13.1875 20.5 C-12.66542969 21.1496875 -12.14335937 21.799375 -11.60546875 22.46875 C-10.00795167 24.34509128 -10.00795167 24.34509128 -7 24 C-4.69557222 21.65271292 -4.69557222 21.65271292 -2.4375 18.6875 C-1.25994141 17.20830078 -1.25994141 17.20830078 -0.05859375 15.69921875 C1.35572201 13.84477436 2.70631676 11.94052486 4 10 C4.99 10 5.98 10 7 10 C7.80859375 12.04296875 7.80859375 12.04296875 8 15 C6.67362022 17.67624201 4.88838941 19.95799984 3.0625 22.3125 C2.58103516 22.95767578 2.09957031 23.60285156 1.60351562 24.26757812 C0.41575708 25.85517618 -0.79038612 27.42899006 -2 29 C0.68841859 31.25245881 2.64641875 32.88213958 6 34 C6.19335938 33.36191406 6.38671875 32.72382812 6.5859375 32.06640625 C6.97652344 30.82697266 6.97652344 30.82697266 7.375 29.5625 C7.75785156 28.32693359 7.75785156 28.32693359 8.1484375 27.06640625 C9 25 9 25 11 24 C12.17635297 26.35270593 12.13359359 27.820752 12.125 30.4375 C12.12886719 31.61119141 12.12886719 31.61119141 12.1328125 32.80859375 C12 35 12 35 11 38 C10.34 38 9.68 38 9 38 C9 39.32 9 40.64 9 42 C10.98 42.66 12.96 43.32 15 44 C15 45.98 15 47.96 15 50 C-0.24300235 46.31217685 -13.35380452 38.48668459 -24 27 C-24.67289063 26.3090625 -25.34578125 25.618125 -26.0390625 24.90625 C-31.66044064 18.9471919 -31.66044064 18.9471919 -33.1875 14.6875 C-33 12 -33 12 -31.9375 9.625 C-30 8 -30 8 -27 7.5625 C-23.6873265 8.04559822 -23.13144892 8.60846356 -21 11 C-20.54149658 10.66677734 -20.08299316 10.33355469 -19.6105957 9.99023438 C-17.51980822 8.48117388 -15.41650677 6.99056702 -13.3125 5.5 C-12.2306543 4.71302734 -12.2306543 4.71302734 -11.12695312 3.91015625 C-4.4644465 -0.77489407 -4.4644465 -0.77489407 0 0 Z " fill="#74C9DE" transform="translate(40,14)"/>
<path d="M0 0 C1.6484375 1.43359375 1.6484375 1.43359375 3.375 3.4375 C3.93960938 4.07558594 4.50421875 4.71367187 5.0859375 5.37109375 C5.71757813 6.23863281 6.34921875 7.10617188 7 8 C7.4127417 8.55381348 7.8254834 9.10762695 8.25073242 9.67822266 C13.15966069 17.18963896 13.57851786 25.80949838 14.5625 34.5 C14.92656221 37.59533924 15.3030237 40.68886864 15.69140625 43.78125 C15.83420517 44.9249707 15.83420517 44.9249707 15.97988892 46.09179688 C16.7937004 52.23124465 18.07196576 58.19752919 19.61366272 64.19348145 C20.78975444 68.8022574 21.48836057 73.28202154 22 78 C22.99 78 23.98 78 25 78 C28 83.75 28 83.75 28 86 C28.66 86 29.32 86 30 86 C30.33 87.32 30.66 88.64 31 90 C31.66 90 32.32 90 33 90 C34.38232443 91.62626404 35.71937515 93.2925002 37 95 C37.66 94.34 38.32 93.68 39 93 C39.33 93.99 39.66 94.98 40 96 C41.99191762 97.65469197 43.96346495 99.18339146 46.0625 100.6875 C46.63033203 101.10322266 47.19816406 101.51894531 47.78320312 101.94726562 C49.18403173 102.97140082 50.59140348 103.98657535 52 105 C51.505 106.98 51.505 106.98 51 109 C52.175625 108.5978125 52.175625 108.5978125 53.375 108.1875 C58.73204741 107.91041134 62.43469965 110.39254585 67 113 C67 113.66 67 114.32 67 115 C60.37579029 116.72805471 56.07841789 114.84964058 50 112 C50 111.34 50 110.68 50 110 C49.29875 109.773125 48.5975 109.54625 47.875 109.3125 C41.62742968 106.46034833 36.86287703 101.54833719 33.6875 95.5 C31.33507172 92.01492107 28.50028115 90.31150642 25 88 C25.34933594 88.53109375 25.69867188 89.0621875 26.05859375 89.609375 C26.74115234 90.66898438 26.74115234 90.66898438 27.4375 91.75 C28.11619141 92.79414063 28.11619141 92.79414063 28.80859375 93.859375 C30 96 30 96 30.42578125 98.0546875 C31.21275682 100.720768 32.59876273 101.65239271 34.75 103.375 C38.30512735 106.33547475 41.15745813 109.35799323 44 113 C32.83568798 109.39925793 25.08408539 96.85548215 20 87 C15.0626213 76.13261033 11.99069273 64.88831273 11 53 C9.35 52.34 7.7 51.68 6 51 C6 49.68 6 48.36 6 47 C7.485 46.505 7.485 46.505 9 46 C8.67398976 39.88449752 8.09841216 34.57851498 5.69921875 28.92578125 C4.52017856 25.67848061 4.30612542 22.4286047 4 19 C3.34 19 2.68 19 2 19 C1.69707031 18.37351562 1.39414062 17.74703125 1.08203125 17.1015625 C-1.43358882 11.92506039 -1.43358882 11.92506039 -5.8125 8.4375 C-6.534375 8.293125 -7.25625 8.14875 -8 8 C-7.6641593 4.89347355 -7.40950721 3.39585697 -5.125 1.1875 C-3 0 -3 0 0 0 Z " fill="#71C3DB" transform="translate(43,5)"/>
<path d="M0 0 C1.65 0 3.3 0 5 0 C5 0.66 5 1.32 5 2 C6.32 2.33 7.64 2.66 9 3 C9 3.99 9 4.98 9 6 C9.556875 5.96519531 10.11375 5.93039063 10.6875 5.89453125 C15.65234044 5.7184136 19.40236603 6.19701504 23.96484375 8.15625 C26.13309072 9.05517773 28.30588077 9.67102448 30.5625 10.3125 C34.67668554 11.65084951 37.3173753 13.6373407 40.4296875 16.59765625 C42.08573659 18.1999179 42.08573659 18.1999179 44.875 19.4375 C47 21 47 21 47.9375 24.5 C48 28 48 28 46 31 C45.61500109 32.65549531 45.27206865 34.3222433 45 36 C44.38125 35.21625 43.7625 34.4325 43.125 33.625 C41.10141339 31.03162353 41.10141339 31.03162353 39 29 C38.3709375 29.58007812 37.741875 30.16015625 37.09375 30.7578125 C31.92287456 35.47701509 26.70336945 39.93754411 21 44 C20.01 43.34 19.02 42.68 18 42 C18.26410694 38.44084462 18.80499115 37.19119761 21.3984375 34.6484375 C22.38070312 33.89820313 23.36296875 33.14796875 24.375 32.375 C28.20173943 29.47078225 28.20173943 29.47078225 31.7265625 26.2265625 C33 25 33 25 35 25 C35 24.34 35 23.68 35 23 C31.62902617 21.50178941 29.79557881 21 26 21 C24.20975251 21.88879362 24.20975251 21.88879362 22.546875 23.1875 C21.928125 23.63867188 21.309375 24.08984375 20.671875 24.5546875 C20.03765625 25.03164062 19.4034375 25.50859375 18.75 26 C18.1003125 26.47695312 17.450625 26.95390625 16.78125 27.4453125 C15.18126336 28.62177327 13.58978359 29.80978769 12 31 C10.4375 29.75 10.4375 29.75 9 28 C8.96484375 26.078125 8.96484375 26.078125 10 24 C12.50390625 21.859375 12.50390625 21.859375 15.5625 19.75 C16.57441406 19.04359375 17.58632812 18.3371875 18.62890625 17.609375 C19.41136719 17.07828125 20.19382812 16.5471875 21 16 C14.75690073 13.22528921 9.80203375 12.62365797 3 13 C2.49487756 11.39743892 1.99608373 9.79288208 1.5 8.1875 C1.2215625 7.29417969 0.943125 6.40085937 0.65625 5.48046875 C0 3 0 3 0 0 Z " fill="#60BBD7" transform="translate(64,59)"/>
<path d="M0 0 C4.93271658 9.84407941 5.64178095 18.12990475 6 29 C6.66 29 7.32 29 8 29 C8.66 32.3 9.32 35.6 10 39 C10.99 38.505 10.99 38.505 12 38 C12.39832031 39.00160156 12.79664063 40.00320312 13.20703125 41.03515625 C13.74214036 42.37762296 14.27729928 43.72006981 14.8125 45.0625 C15.07353516 45.71927734 15.33457031 46.37605469 15.60351562 47.05273438 C16.39563804 49.03793006 17.19647523 51.01939482 18 53 C18.25620117 53.64219482 18.51240234 54.28438965 18.77636719 54.94604492 C20.06127016 58.08016636 21.27561784 60.73001743 23.625 63.1875 C26 66 26 66 26.375 68.1875 C26.58125 68.785625 26.7875 69.38375 27 70 C29.88675047 71.44258395 29.88675047 71.44258395 32.01171875 72.20703125 C35.20124414 73.47908165 38.04854565 75.25322089 41 77 C40.34 78.65 39.68 80.3 39 82 C39.763125 81.67 40.52625 81.34 41.3125 81 C44 80 44 80 47 80 C47.33 80.99 47.66 81.98 48 83 C46.59554165 85.2636564 44.8032087 87.0208685 43 89 C42.525625 88.443125 42.05125 87.88625 41.5625 87.3125 C39.29185408 85.26338051 37.47892278 84.09529664 34.8125 82.6875 C29.82020321 80.01720171 25.13823972 76.88387983 21 73 C21 72.34 21 71.68 21 71 C19.515 70.505 19.515 70.505 18 70 C16.90234375 68.328125 16.90234375 68.328125 15.9375 66.25 C15.42896484 65.16138672 15.42896484 65.16138672 14.91015625 64.05078125 C6.31602513 44.68632271 1.88178335 21.07597357 0 0 Z " fill="#8FD8E8" transform="translate(122,107)"/>
<path d="M0 0 C0.33 0 0.66 0 1 0 C1.32161145 1.60805727 1.64318742 3.21612164 1.96459961 4.82421875 C2.24083062 6.2045522 2.51769793 7.58475844 2.79516602 8.96484375 C3.37910411 11.87264484 3.95885585 14.77992665 4.50390625 17.6953125 C5.56985175 23.36114896 7.01514241 28.89710388 8.53442383 34.45507812 C9.73799431 38.89659774 10.71594787 43.3363295 11.5703125 47.85546875 C12.55030262 52.74651036 13.99657473 57.43664243 16 62 C16.36351562 62.91072266 16.36351562 62.91072266 16.734375 63.83984375 C21.28298726 74.23382177 31.16343015 79.37671333 40.80078125 84.484375 C41.88939453 85.23460937 41.88939453 85.23460937 43 86 C43 86.99 43 87.98 43 89 C32.87753107 88.55011249 23.77664963 82.21984824 17 75 C12.42107242 69.63378645 9.46165639 64.92630761 8.4609375 57.91015625 C7.75634779 53.46168734 6.55178808 49.14911489 5.4074707 44.79638672 C4.57370522 41.55401018 3.91345811 38.39178602 3.44140625 35.07421875 C3.33251638 32.13270616 3.33251638 32.13270616 2 31 C1.7020561 29.36850933 1.46135023 27.72647554 1.24609375 26.08203125 C1.11396484 25.07462891 0.98183594 24.06722656 0.84570312 23.02929688 C0.71099609 21.96775391 0.57628906 20.90621094 0.4375 19.8125 C0.29892578 18.77029297 0.16035156 17.72808594 0.01757812 16.65429688 C-1.69437689 3.38875379 -1.69437689 3.38875379 0 0 Z " fill="#58B0D2" transform="translate(121,107)"/>
<path d="M0 0 C0.66 0 1.32 0 2 0 C5 4.38461538 5 4.38461538 5 7 C5.66 7 6.32 7 7 7 C7.95527708 8.30594841 8.86305064 9.64671644 9.75 11 C12.99054588 15.30257352 16.39137986 17.86789543 21 20.5 C21.58104492 20.83773437 22.16208984 21.17546875 22.76074219 21.5234375 C26.90675326 23.77685621 30.38184404 24.57588364 35 25 C35.18175781 24.38511719 35.36351562 23.77023438 35.55078125 23.13671875 C35.92783203 21.92435547 35.92783203 21.92435547 36.3125 20.6875 C36.55613281 19.88699219 36.79976562 19.08648437 37.05078125 18.26171875 C38.04182023 15.90035427 39.08074943 14.66120007 41 13 C42.17635297 15.35270593 42.13359359 16.820752 42.125 19.4375 C42.12886719 20.61119141 42.12886719 20.61119141 42.1328125 21.80859375 C42 24 42 24 41 27 C40.34 27 39.68 27 39 27 C39 28.32 39 29.64 39 31 C40.98 31.66 42.96 32.32 45 33 C45 34.98 45 36.96 45 39 C28.49071188 35.00581739 17.4273514 27.12744921 7 14 C6.29488281 13.16082031 5.58976563 12.32164063 4.86328125 11.45703125 C4.22777344 10.68746094 3.59226562 9.91789062 2.9375 9.125 C2.36902344 8.44695313 1.80054688 7.76890625 1.21484375 7.0703125 C-0.2647533 4.5488127 -0.23547664 2.87582108 0 0 Z " fill="#51AACE" transform="translate(10,25)"/>
<path d="M0 0 C5.92620927 2.50724238 9.89705185 6.46865765 13 12 C16.55334505 16.83649743 19.65657624 19.27590161 25 22 C25 22.66 25 23.32 25 24 C30.82254243 25.96818336 35.83381819 27.40214229 42 27 C42.0928125 26.13375 42.0928125 26.13375 42.1875 25.25 C43.32027301 22.11309013 45.34197595 20.90832496 48 19 C50 22 50 22 49.875 23.9375 C48.75334838 26.58139311 47.11358624 28.09095436 45 30 C46.86745332 32.17433143 46.86745332 32.17433143 49.5625 32.8125 C50.366875 33.204375 51.17125 33.59625 52 34 C52.8125 36.625 52.8125 36.625 53 39 C46.39375351 38.48652144 40.97859113 36.70854851 34.875 34.1875 C34.00746094 33.84396484 33.13992187 33.50042969 32.24609375 33.14648438 C25.72800802 30.50254245 20.05758702 27.70742728 15.5625 22.125 C13.28952425 19.39843707 11.04039924 17.12869772 8.25 14.9375 C4.80597148 12.10214766 3.46569486 9.24280091 2 5 C1.608125 4.030625 1.21625 3.06125 0.8125 2.0625 C0.544375 1.381875 0.27625 0.70125 0 0 Z " fill="#49A0C8" transform="translate(68,93)"/>
<path d="M0 0 C6.68862916 5.81688839 11.89976098 13.69767851 12.8125 22.5625 C12.89574405 24.04064435 12.96601032 25.51990373 13 27 C12.34 26.67 11.68 26.34 11 26 C11.33 34.58 11.66 43.16 12 52 C10.02 51.67 8.04 51.34 6 51 C6 49.68 6 48.36 6 47 C7.485 46.505 7.485 46.505 9 46 C8.67398976 39.88449752 8.09841216 34.57851498 5.69921875 28.92578125 C4.52017856 25.67848061 4.30612542 22.4286047 4 19 C3.34 19 2.68 19 2 19 C1.69707031 18.37351562 1.39414062 17.74703125 1.08203125 17.1015625 C-1.43358882 11.92506039 -1.43358882 11.92506039 -5.8125 8.4375 C-6.534375 8.293125 -7.25625 8.14875 -8 8 C-7.6641593 4.89347355 -7.40950721 3.39585697 -5.125 1.1875 C-3 0 -3 0 0 0 Z " fill="#72C6DC" transform="translate(43,5)"/>
<path d="M0 0 C17.03700329 13.90775779 23.71967286 32.49626988 26 54 C26.99 54.103125 27.98 54.20625 29 54.3125 C33.28297163 54.90808706 36.99996371 56.38595027 41 58 C37.34142468 59.31534494 34.91973519 58.65468309 31.25 57.5625 C29.77273437 57.13130859 29.77273437 57.13130859 28.265625 56.69140625 C27.14414063 56.34916016 27.14414063 56.34916016 26 56 C26.30818356 57.31352023 26.62167665 58.62579572 26.9375 59.9375 C27.19853516 61.03384766 27.19853516 61.03384766 27.46484375 62.15234375 C27.83887569 63.99969898 27.83887569 63.99969898 29 65 C29.07205511 66.68608966 29.08386068 68.37500659 29.0625 70.0625 C29.05347656 70.98160156 29.04445312 71.90070313 29.03515625 72.84765625 C29.02355469 73.55792969 29.01195312 74.26820313 29 75 C28.34 74.67 27.68 74.34 27 74 C26.5859375 71.71484375 26.5859375 71.71484375 26.375 68.9375 C26.30023438 68.01839844 26.22546875 67.09929687 26.1484375 66.15234375 C26.09945312 65.44207031 26.05046875 64.73179687 26 64 C25.34 64 24.68 64 24 64 C23.91363281 62.9584375 23.82726562 61.916875 23.73828125 60.84375 C22.52660057 47.93130323 19.65854515 35.8928024 14.015625 24.13671875 C13.26564094 22.55886767 12.57642353 20.95180171 11.921875 19.33203125 C9.34322573 13.10029552 6.29582797 8.60368367 1.57421875 3.77734375 C0 2 0 2 0 0 Z " fill="#92DDEB" transform="translate(104,72)"/>
<path d="M0 0 C0.66 0 1.32 0 2 0 C5 5.75 5 5.75 5 8 C5.66 8 6.32 8 7 8 C7.33 9.32 7.66 10.64 8 12 C8.66 12 9.32 12 10 12 C11.38232443 13.62626404 12.71937515 15.2925002 14 17 C14.66 16.34 15.32 15.68 16 15 C16.33 15.99 16.66 16.98 17 18 C18.99191762 19.65469197 20.96346495 21.18339146 23.0625 22.6875 C23.91424805 23.31108398 23.91424805 23.31108398 24.78320312 23.94726562 C26.18403173 24.97140082 27.59140348 25.98657535 29 27 C28.67 28.32 28.34 29.64 28 31 C28.78375 30.731875 29.5675 30.46375 30.375 30.1875 C35.73204741 29.91041134 39.43469965 32.39254585 44 35 C44 35.66 44 36.32 44 37 C37.37579029 38.72805471 33.07841789 36.84964058 27 34 C27 33.34 27 32.68 27 32 C26.29875 31.773125 25.5975 31.54625 24.875 31.3125 C18.61192674 28.4532709 14.09367969 23.5658925 10.64453125 17.69140625 C8.27013995 13.80552596 5.48945549 10.24889635 2.7421875 6.62109375 C1.18720416 4.28164572 0.42495642 2.73646179 0 0 Z " fill="#6BC0DB" transform="translate(66,83)"/>
<path d="M0 0 C3.1464838 2.83183542 4.56450031 5.05237584 6 9 C10.51518381 20.50643615 20.28408847 25.9106745 30.80078125 31.484375 C31.88939453 32.23460937 31.88939453 32.23460937 33 33 C33 33.99 33 34.98 33 36 C25.4041723 35.51515993 19.74056805 32.88392084 14.4609375 27.328125 C8.31944444 19.95833333 8.31944444 19.95833333 7 16 C6.34 16 5.68 16 5 16 C5 15.34 5 14.68 5 14 C4.34 14 3.68 14 3 14 C2.49528803 12.23050388 1.99639315 10.45934777 1.5 8.6875 C1.2215625 7.70136719 0.943125 6.71523437 0.65625 5.69921875 C0 3 0 3 0 0 Z " fill="#4193C2" transform="translate(131,160)"/>
<path d="M0 0 C1.32 0.66 2.64 1.32 4 2 C3.69729006 5.2898288 3.30473924 6.69698245 0.92578125 9.0625 C0.06339844 9.701875 -0.79898438 10.34125 -1.6875 11 C-4.67446995 13.24660987 -7.56447711 15.46779042 -10.3125 18 C-13 20 -13 20 -15.875 20.3125 C-16.57625 20.209375 -17.2775 20.10625 -18 20 C-18.33 18.68 -18.66 17.36 -19 16 C-12.87789864 10.36357683 -6.65478497 4.99912591 0 0 Z " fill="#2D4E7A" transform="translate(167,158)"/>
<path d="M0 0 C3 1 3 1 4.6875 3.9375 C6 7 6 7 6 9 C6.66 9 7.32 9 8 9 C12.57142857 14.02857143 12.57142857 14.02857143 13.9375 17.125 C15.64208751 20.1330956 18.02474858 21.34072517 21 23 C24.23038842 23.79070548 24.23038842 23.79070548 27 24 C27 24.99 27 25.98 27 27 C27.763125 26.67 28.52625 26.34 29.3125 26 C32 25 32 25 35 25 C35.495 26.485 35.495 26.485 36 28 C34.59554165 30.2636564 32.8032087 32.0208685 31 34 C30.525625 33.443125 30.05125 32.88625 29.5625 32.3125 C27.29185408 30.26338051 25.47892278 29.09529664 22.8125 27.6875 C17.82020321 25.01720171 13.13823972 21.88387983 9 18 C9 17.34 9 16.68 9 16 C8.01 15.67 7.02 15.34 6 15 C2.91135827 10.49344089 1.31242169 5.24968676 0 0 Z " fill="#5CB3D4" transform="translate(134,162)"/>
<path d="M0 0 C0.33 0 0.66 0 1 0 C1.13051758 0.66829834 1.26103516 1.33659668 1.39550781 2.02514648 C2.68708331 8.61704473 4.00423741 15.2033248 5.34619141 21.78515625 C5.74638695 23.75295871 6.14281528 25.7215379 6.53271484 27.69140625 C8.17363139 35.92107946 9.9021285 43.11837069 14.828125 50.1171875 C16 52 16 52 16 55 C13.5625 53.8125 13.5625 53.8125 11 52 C10.1875 49.3125 10.1875 49.3125 10 47 C9.34 47 8.68 47 8 47 C2.84906045 32.41400614 -1.84668405 16.663655 -1 1 C-0.67 0.67 -0.34 0.34 0 0 Z " fill="#61B7D6" transform="translate(56,41)"/>
<path d="M0 0 C0.59167969 0.21527344 1.18335938 0.43054688 1.79296875 0.65234375 C1.27811557 4.68891457 0.32944503 6.60448852 -2.5859375 9.421875 C-3.59624023 10.4128418 -3.59624023 10.4128418 -4.62695312 11.42382812 C-5.33400391 12.09736328 -6.04105469 12.77089844 -6.76953125 13.46484375 C-7.48044922 14.15771484 -8.19136719 14.85058594 -8.92382812 15.56445312 C-10.67621437 17.26979545 -12.43724594 18.96509551 -14.20703125 20.65234375 C-15.71435547 19.27392578 -15.71435547 19.27392578 -17.20703125 17.65234375 C-16.79368219 10.79074943 -8.61211369 4.93147678 -3.8828125 0.5859375 C-2.20703125 -0.34765625 -2.20703125 -0.34765625 0 0 Z " fill="#4D7497" transform="translate(157.20703125,146.34765625)"/>
<path d="M0 0 C0.556875 0.2475 1.11375 0.495 1.6875 0.75 C1.19121101 4.84613165 0.33321937 6.55089052 -2.875 9.125 C-3.58785156 9.71152344 -4.30070312 10.29804687 -5.03515625 10.90234375 C-5.78667969 11.51207031 -6.53820312 12.12179688 -7.3125 12.75 C-8.81769461 14.05653949 -10.31795892 15.36878729 -11.8125 16.6875 C-12.97916667 17.70833333 -14.14583333 18.72916667 -15.3125 19.75 C-16.6325 19.09 -17.9525 18.43 -19.3125 17.75 C-19.04045074 14.24427437 -18.51898401 12.95544466 -15.984375 10.43359375 C-15.02015625 9.69238281 -14.0559375 8.95117188 -13.0625 8.1875 C-12.10859375 7.44371094 -11.1546875 6.69992188 -10.171875 5.93359375 C-9.22828125 5.21300781 -8.2846875 4.49242188 -7.3125 3.75 C-6.41660156 2.99332031 -5.52070312 2.23664063 -4.59765625 1.45703125 C-2.3125 -0.25 -2.3125 -0.25 0 0 Z " fill="#375B85" transform="translate(101.3125,83.25)"/>
<path d="M0 0 C0 4 0 4 -1.40527344 5.66333008 C-3.51023536 7.39353304 -5.61522174 9.11908161 -7.75 10.8125 C-8.47960938 11.42287109 -9.20921875 12.03324219 -9.9609375 12.66210938 C-10.66992188 13.23380859 -11.37890625 13.80550781 -12.109375 14.39453125 C-12.75874023 14.91893799 -13.40810547 15.44334473 -14.07714844 15.98364258 C-16 17 -16 17 -18.24316406 16.6628418 C-18.82291992 16.444104 -19.40267578 16.22536621 -20 16 C-20.33 14.35 -20.66 12.7 -21 11 C-18.4509184 9.1474255 -15.88378216 7.32160459 -13.3125 5.5 C-12.59126953 4.97535156 -11.87003906 4.45070313 -11.12695312 3.91015625 C-4.4644465 -0.77489407 -4.4644465 -0.77489407 0 0 Z " fill="#476B8F" transform="translate(40,14)"/>
<path d="M0 0 C12.34179382 1.4350923 24.39677552 3.44086169 33 13 C33.763125 13.763125 34.52625 14.52625 35.3125 15.3125 C35.869375 15.869375 36.42625 16.42625 37 17 C35.35 16.67 33.7 16.34 32 16 C32 15.34 32 14.68 32 14 C30.515 14.185625 30.515 14.185625 29 14.375 C24.51153935 14.41171542 21.92197359 12.19297356 18.50390625 9.5078125 C17 8 17 8 17 6 C16.43152344 5.96261719 15.86304688 5.92523438 15.27734375 5.88671875 C9.91564807 5.43021378 5.8330492 4.36510918 1 2 C0.67 3.32 0.34 4.64 0 6 C0 4.02 0 2.04 0 0 Z " fill="#8BD9E9" transform="translate(130,128)"/>
<path d="M0 0 C0.99 0 1.98 0 3 0 C3.8046875 2.046875 3.8046875 2.046875 4 5 C2.69619411 7.65618197 0.93128347 9.91587498 -0.875 12.25 C-1.34808594 12.88679688 -1.82117187 13.52359375 -2.30859375 14.1796875 C-5.63839286 18.63839286 -5.63839286 18.63839286 -7 20 C-8.66617115 20.04063832 -10.33388095 20.042721 -12 20 C-12.42139129 17.4183729 -12.40900929 15.64430276 -10.98486328 13.40087891 C-9.55996255 11.65374639 -8.08343963 9.97667558 -6.5625 8.3125 C-2.89911543 4.42589731 -2.89911543 4.42589731 0 0 Z " fill="#406185" transform="translate(44,24)"/>
<path d="M0 0 C6.66168287 1.37431059 13.04790717 3.16649824 19.5 5.3125 C20.38558594 5.59544922 21.27117187 5.87839844 22.18359375 6.16992188 C31.54706637 9.27045503 38.76859446 12.3934941 44 21 C41.05709278 19.62708123 38.60004497 17.99776074 36 16.0625 C31.36977503 12.89851294 26.85585987 11.67830414 21.40625 10.54296875 C19 10 19 10 18 9 C16.48530552 8.76807135 14.96245438 8.58784762 13.4375 8.4375 C12.61121094 8.35371094 11.78492187 8.26992187 10.93359375 8.18359375 C10.29550781 8.12300781 9.65742187 8.06242187 9 8 C8.67 7.01 8.34 6.02 8 5 C7.01 4.67 6.02 4.34 5 4 C5 3.34 5 2.68 5 2 C3.35 2 1.7 2 0 2 C0 1.34 0 0.68 0 0 Z " fill="#77CEE2" transform="translate(64,57)"/>
<path d="M0 0 C0.99 0.33 1.98 0.66 3 1 C3.33 2.65 3.66 4.3 4 6 C-10.13836478 14 -10.13836478 14 -17 14 C-16.64022731 11.30750761 -16.27448161 10.23560653 -14.1796875 8.4375 C-13.41914063 7.963125 -12.65859375 7.48875 -11.875 7 C-11.06546875 6.49339844 -10.2559375 5.98679688 -9.421875 5.46484375 C-8.62265625 4.98144531 -7.8234375 4.49804688 -7 4 C-6.32453125 3.56816406 -5.6490625 3.13632813 -4.953125 2.69140625 C-3.125 1.5625 -3.125 1.5625 0 0 Z " fill="#254069" transform="translate(178,175)"/>
<path d="M0 0 C-0.21298447 3.39197496 -1.20734407 4.18565536 -3.80078125 6.5078125 C-4.96343248 7.39073807 -6.13437385 8.26283168 -7.3125 9.125 C-7.89451172 9.56714844 -8.47652344 10.00929688 -9.07617188 10.46484375 C-11.93310607 12.60673552 -14.72425727 14.56029085 -18 16 C-20 13 -20 13 -19.921875 11.0390625 C-18.62763608 8.1763815 -16.84167195 7.11556075 -14.25 5.375 C-13.38890625 4.78460938 -12.5278125 4.19421875 -11.640625 3.5859375 C-7.52990813 1.117075 -4.84165894 0 0 0 Z " fill="#517A9C" transform="translate(93,74)"/>
<path d="M0 0 C1.50146484 1.38354492 1.50146484 1.38354492 3 3 C2.94876114 7.07348914 0.08210896 9.41905171 -2.625 12.1875 C-3.46289062 13.06792969 -4.30078125 13.94835937 -5.1640625 14.85546875 C-8.50818766 17.38429067 -10.86561904 17.73968712 -15 18 C-13.52357373 12.77345099 -10.17768064 9.83173561 -6.375 6.1875 C-5.76398438 5.59001953 -5.15296875 4.99253906 -4.5234375 4.37695312 C-3.02235161 2.91104894 -1.51207138 1.45457007 0 0 Z " fill="#416489" transform="translate(109,96)"/>
<path d="M0 0 C11.59093359 9.46198661 18.73188804 18.47537408 20.3125 33.625 C20.57302627 36.41584305 20.79594779 39.20418021 21 42 C19.30630126 39.4594519 18.58865194 37.99913439 17.75 35.1875 C15.9967205 29.71187325 13.70021983 24.49668662 11.40234375 19.234375 C10.5658381 17.30505279 9.77270569 15.35456089 9.07421875 13.37109375 C7.76674346 10.48513919 6.04908786 8.60737052 3.875 6.3125 C0 2.20996441 0 2.20996441 0 0 Z " fill="#93DEEC" transform="translate(104,72)"/>
<path d="M0 0 C0.33 0 0.66 0 1 0 C1.20496094 1.05960937 1.40992187 2.11921875 1.62109375 3.2109375 C1.89307666 4.59898822 2.16522044 5.98700744 2.4375 7.375 C2.57220703 8.07367188 2.70691406 8.77234375 2.84570312 9.4921875 C3.5772422 13.35628734 3.5772422 13.35628734 5 17 C5.34555498 22.08169093 5.02401636 27.00792025 4 32 C3.34 31.67 2.68 31.34 2 31 C1.49755859 28.87036133 1.49755859 28.87036133 1.1484375 26.08203125 C1.01953125 25.07462891 0.890625 24.06722656 0.7578125 23.02929688 C0.63148437 21.96775391 0.50515625 20.90621094 0.375 19.8125 C0.2409375 18.77029297 0.106875 17.72808594 -0.03125 16.65429688 C-1.68620786 3.37241571 -1.68620786 3.37241571 0 0 Z " fill="#62BAD7" transform="translate(121,107)"/>
<path d="M0 0 C3.93198024 3.42605953 6.01119117 7.28921092 8.3125 11.875 C8.68439453 12.56980469 9.05628906 13.26460937 9.43945312 13.98046875 C11.19668075 17.45565635 12.02184539 19.47925317 11.85546875 23.4453125 C11 26 11 26 9 27 C8.67 24.03 8.34 21.06 8 18 C7.34 18 6.68 18 6 18 C2.05589168 12.74118891 1.18585407 6.32455503 0 0 Z " fill="#ADE7F2" transform="translate(182,158)"/>
<path d="M0 0 C5.75 1.875 5.75 1.875 8 3 C8 6.96 8 10.92 8 15 C7.01 15.495 7.01 15.495 6 16 C5.18357746 14.73168307 4.37200895 13.46024069 3.5625 12.1875 C2.88380859 11.12595703 2.88380859 11.12595703 2.19140625 10.04296875 C1 8 1 8 0 5 C-0.66 4.34 -1.32 3.68 -2 3 C-1.34 2.01 -0.68 1.02 0 0 Z " fill="#4FABCD" transform="translate(102,79)"/>
<path d="M0 0 C0.66 0.33 1.32 0.66 2 1 C0.625 3.5 0.625 3.5 -1 6 C-1.66 6 -2.32 6 -3 6 C-3 6.66 -3 7.32 -3 8 C-1.02 6.68 0.96 5.36 3 4 C3.66 4.33 4.32 4.66 5 5 C3.61860662 6.3482881 2.2192352 7.67817378 0.8125 9 C0.03519531 9.7425 -0.74210938 10.485 -1.54296875 11.25 C-4.33045204 13.23536171 -5.65781368 13.37992882 -9 13 C-9.33 11.68 -9.66 10.36 -10 9 C-6.7 6.03 -3.4 3.06 0 0 Z " fill="#31587F" transform="translate(158,165)"/>
<path d="M0 0 C3.3 0.33 6.6 0.66 10 1 C10 1.99 10 2.98 10 4 C10.763125 3.67 11.52625 3.34 12.3125 3 C15 2 15 2 18 2 C18.33 2.99 18.66 3.98 19 5 C17.59554165 7.2636564 15.8032087 9.0208685 14 11 C13.525625 10.443125 13.05125 9.88625 12.5625 9.3125 C9.58400316 6.62458822 6.47829823 4.97411726 2.92578125 3.1484375 C1 2 1 2 0 0 Z " fill="#5FB4D4" transform="translate(151,185)"/>
<path d="M0 0 C2.63079887 0.56331456 5.25271463 1.14933976 7.875 1.75 C8.62136719 1.90726563 9.36773437 2.06453125 10.13671875 2.2265625 C15.66252929 3.5208965 15.66252929 3.5208965 17.5078125 6.140625 C17.75144531 7.06101563 17.75144531 7.06101563 18 8 C15.36687508 8.07523214 13.07839554 8.017639 10.5 7.4375 C7.97287515 6.83424099 7.97287515 6.83424099 5.375 7.5625 C3 8 3 8 0 6 C-0.1875 2.875 -0.1875 2.875 0 0 Z " fill="#57B5D4" transform="translate(131,130)"/>
<path d="M0 0 C2 2 2 2 2.23046875 4.05859375 C2.21628906 4.84363281 2.20210937 5.62867188 2.1875 6.4375 C2.18105469 7.21996094 2.17460938 8.00242187 2.16796875 8.80859375 C2 11 2 11 1 14 C-2 16 -2 16 -5 16 C-5.82200425 9.75276774 -2.92551394 5.28682163 0 0 Z " fill="#4A7194" transform="translate(50,38)"/>
<path d="M0 0 C1.32 0 2.64 0 4 0 C3.70876501 5.97031739 0.97185616 8.894534 -3 13 C-5 12 -5 12 -5.9375 9.25 C-6 6 -6 6 -3.625 3.1875 C-2.325625 2.1046875 -2.325625 2.1046875 -1 1 C-0.67 0.67 -0.34 0.34 0 0 Z " fill="#769BB6" transform="translate(139,136)"/>
<path d="M0 0 C0.33 0 0.66 0 1 0 C1.84855227 4.28879982 2.67602392 8.58141655 3.5 12.875 C3.73847656 14.07898438 3.97695313 15.28296875 4.22265625 16.5234375 C5.5380599 23.43870239 6.36598855 29.9587869 6 37 C5.01 37.495 5.01 37.495 4 38 C3.91435791 37.26362305 3.82871582 36.52724609 3.74047852 35.76855469 C3.35051461 32.42871531 2.95655174 29.08935944 2.5625 25.75 C2.42779297 24.59113281 2.29308594 23.43226562 2.15429688 22.23828125 C2.02216797 21.12324219 1.89003906 20.00820313 1.75390625 18.859375 C1.63345947 17.83295898 1.5130127 16.80654297 1.38891602 15.74902344 C1.0608616 13.43019564 0.58297008 11.26242005 0 9 C-0.06548492 7.41788427 -0.08578381 5.83329919 -0.0625 4.25 C-0.05347656 3.45078125 -0.04445312 2.6515625 -0.03515625 1.828125 C-0.02355469 1.22484375 -0.01195312 0.6215625 0 0 Z " fill="#A2E7F1" transform="translate(59,30)"/>
<path d="M0 0 C0.66 0 1.32 0 2 0 C2.21914063 0.76183594 2.43828125 1.52367188 2.6640625 2.30859375 C4.8395134 9.39207413 7.52429505 15.09206947 12 21 C11.67 21.66 11.34 22.32 11 23 C8.5625 21.8125 8.5625 21.8125 6 20 C5.1875 17.3125 5.1875 17.3125 5 15 C4.34 15 3.68 15 3 15 C1.094753 9.89665983 -0.42589023 5.53657294 0 0 Z " fill="#57ADD1" transform="translate(61,73)"/>
<path d="M0 0 C1.65 0 3.3 0 5 0 C5 0.66 5 1.32 5 2 C6.32 2.33 7.64 2.66 9 3 C9 3.99 9 4.98 9 6 C11.97 6 14.94 6 18 6 C18 6.33 18 6.66 18 7 C16.39318359 7.07347656 16.39318359 7.07347656 14.75390625 7.1484375 C13.35674361 7.22345294 11.9596095 7.2990013 10.5625 7.375 C9.85544922 7.4059375 9.14839844 7.436875 8.41992188 7.46875 C6.60760812 7.57280629 4.80182012 7.77919892 3 8 C2.67 8.66 2.34 9.32 2 10 C1.34 6.7 0.68 3.4 0 0 Z " fill="#63BCD6" transform="translate(64,59)"/>
<path d="M0 0 C7.74570107 2.1946153 13.92502855 4.63973107 20 10 C19.01 10.495 19.01 10.495 18 11 C17.01 10.67 16.02 10.34 15 10 C15 9.34 15 8.68 15 8 C13.515 8.185625 13.515 8.185625 12 8.375 C7.51153935 8.41171542 4.92197359 6.19297356 1.50390625 3.5078125 C0 2 0 2 0 0 Z " fill="#7DD1E4" transform="translate(147,134)"/>
<path d="M0 0 C2.77825849 4.16738774 3.53563213 8.47859294 4.6875 13.3125 C4.92533203 14.25029297 5.16316406 15.18808594 5.40820312 16.15429688 C6.59472912 21.091776 7.38833169 24.9767635 6 30 C3.51445609 27.51445609 3.48659583 26.13215091 2.9296875 22.6953125 C2.75566406 21.63699219 2.58164063 20.57867187 2.40234375 19.48828125 C2.22832031 18.37839844 2.05429688 17.26851562 1.875 16.125 C1.60236328 14.47177734 1.60236328 14.47177734 1.32421875 12.78515625 C0.62388906 8.45153718 0 4.39933026 0 0 Z " fill="#AAE8F2" transform="translate(123,99)"/>
<path d="M0 0 C5.76832116 1.2143834 10.00186731 2.87616707 15 6 C15 6.99 15 7.98 15 9 C5.69102296 7.92588727 5.69102296 7.92588727 1.75 3.4375 C0 1 0 1 0 0 Z " fill="#408FBE" transform="translate(149,187)"/>
<path d="M0 0 C3.83333333 4.47222222 3.83333333 4.47222222 4.75 7.375 C6.43581891 10.91521971 8.97188049 12.73928051 11.95703125 15.21875 C14.66920042 17.58347111 16.78968886 20.16803886 19 23 C14.44625068 21.58419794 11.62092411 19.04489128 8.375 15.6875 C7.89804688 15.21376953 7.42109375 14.74003906 6.9296875 14.25195312 C3.39326172 10.66149862 0.15719751 7.3579626 -0.1875 2.1875 C-0.125625 1.465625 -0.06375 0.74375 0 0 Z " fill="#5EB6D2" transform="translate(68,95)"/>
<path d="M0 0 C2.64 0 5.28 0 8 0 C9.32229189 2.64458379 9.09677194 4.67761301 9.0625 7.625 C9.05347656 8.62789062 9.04445312 9.63078125 9.03515625 10.6640625 C9.02355469 11.43492187 9.01195312 12.20578125 9 13 C8.38125 12.21625 7.7625 11.4325 7.125 10.625 C5.10141339 8.03162353 5.10141339 8.03162353 3 6 C2.66666667 4.66666667 2.33333333 3.33333333 2 2 C1.34 1.34 0.68 0.68 0 0 Z " fill="#348FBF" transform="translate(168,158)"/>
<path d="M0 0 C2.99332739 0.9977758 3.94766315 1.7522025 6 4 C6.33 3.01 6.66 2.02 7 1 C8.49821059 4.37097383 9 6.20442119 9 10 C10.48194946 11.67380307 10.48194946 11.67380307 12.4375 13.0625 C15.89981949 15.69945848 15.89981949 15.69945848 17 19 C11.46721442 17.65871865 8.21578635 13.44835 5 9 C5 8.34 5 7.68 5 7 C4.34 7 3.68 7 3 7 C0 2.61538462 0 2.61538462 0 0 Z " fill="#65BDD9" transform="translate(12,25)"/>
<path d="M0 0 C1.5625 1.25 1.5625 1.25 3 3 C3.0625 4.9375 3.0625 4.9375 2 7 C-3.11111111 11 -3.11111111 11 -7 11 C-7 10.01 -7 9.02 -7 8 C-6.34 8 -5.68 8 -5 8 C-4.9175 7.4225 -4.835 6.845 -4.75 6.25 C-3.79468987 3.3840696 -2.21530827 2.0009236 0 0 Z " fill="#527D9C" transform="translate(115,112)"/>
<path d="M0 0 C0.91007812 0.00902344 1.82015625 0.01804687 2.7578125 0.02734375 C3.45648438 0.03894531 4.15515625 0.05054687 4.875 0.0625 C3.875 3.0625 3.875 3.0625 1.125 4.75 C-1.97520705 6.00200669 -3.84171912 6.35220125 -7.125 6.0625 C-7.125 4.4125 -7.125 2.7625 -7.125 1.0625 C-4.60024538 -0.19987731 -2.81299534 -0.03606404 0 0 Z " fill="#6FA0BB" transform="translate(74.125,65.9375)"/>
<path d="M0 0 C2.6015625 1.21484375 2.6015625 1.21484375 5.625 2.9375 C6.62789062 3.50339844 7.63078125 4.06929687 8.6640625 4.65234375 C9.43492187 5.09707031 10.20578125 5.54179687 11 6 C10.67 6.66 10.34 7.32 10 8 C3.6915078 8.36395147 3.6915078 8.36395147 0.625 6.75 C-1.16671807 4.82045747 -1.64393309 3.58148508 -2 1 C-1.34 0.67 -0.68 0.34 0 0 Z " fill="#9EE1ED" transform="translate(152,178)"/>
<path d="M0 0 C4.10105486 7.5711782 5.54928618 14.50999962 6.1875 23 C6.26935547 23.96550781 6.35121094 24.93101562 6.43554688 25.92578125 C6.6339444 28.2832107 6.8218573 30.64096843 7 33 C4.80892155 29.71338233 4.55442406 27.92761759 4.0625 24.0625 C3.27945979 18.45593207 2.09865856 13.10803679 0.5859375 7.65625 C0.00305657 5.01385647 -0.10744413 2.69587102 0 0 Z " fill="#7ACCE2" transform="translate(122,107)"/>
<path d="M0 0 C0.66 0 1.32 0 2 0 C2.33 1.32 2.66 2.64 3 4 C3.66 4 4.32 4 5 4 C5 4.66 5 5.32 5 6 C5.66 6 6.32 6 7 6 C8.39589947 7.55003004 9.71887019 9.16634239 11 10.8125 C11.70125 11.70582031 12.4025 12.59914062 13.125 13.51953125 C14.47413942 15.30433028 15.75894775 17.13842162 17 19 C9.08661647 15.65203005 4.29877847 9.18582791 0 2 C0 1.34 0 0.68 0 0 Z " fill="#69BED7" transform="translate(131,170)"/>
<path d="M0 0 C0 1.33333333 0 2.66666667 0 4 C0.66 4.33 1.32 4.66 2 5 C0.37660195 6.70884005 -1.29319053 8.37446717 -3 10 C-3.66 10 -4.32 10 -5 10 C-5 10.66 -5 11.32 -5 12 C-6.32 12 -7.64 12 -9 12 C-7.54718935 6.67302761 -3.91888622 3.63597198 0 0 Z " fill="#2D4C76" transform="translate(103,102)"/>
<path d="M0 0 C2.4464076 3.66961141 2.96149344 7.17802309 3.6875 11.4375 C3.82994141 12.20126953 3.97238281 12.96503906 4.11914062 13.75195312 C4.3134668 14.86280273 4.3134668 14.86280273 4.51171875 15.99609375 C4.62990967 16.66825928 4.74810059 17.3404248 4.86987305 18.03295898 C5.01495144 20.22601082 4.63457442 21.90704331 4 24 C3.13024657 21.12891082 2.27899167 18.25437467 1.4375 15.375 C1.19064453 14.56675781 0.94378906 13.75851563 0.68945312 12.92578125 C-0.66194585 8.24346932 -1.30834073 4.84164413 0 0 Z " fill="#7DCCE0" transform="translate(56,61)"/>
<path d="M0 0 C0.33 0.99 0.66 1.98 1 3 C-0.54671857 5.49945017 -2.11311902 7.78684696 -3.875 10.125 C-4.34808594 10.77082031 -4.82117187 11.41664062 -5.30859375 12.08203125 C-8.72544643 16.72544643 -8.72544643 16.72544643 -10 18 C-11.66617115 18.04063832 -13.33388095 18.042721 -15 18 C-13.625 16.5 -13.625 16.5 -12 15 C-11.34 15 -10.68 15 -10 15 C-9.63261719 14.18789063 -9.63261719 14.18789063 -9.2578125 13.359375 C-7.70646212 10.44938857 -5.83285696 7.9025804 -3.875 5.25 C-3.15054688 4.26515625 -2.42609375 3.2803125 -1.6796875 2.265625 C-1.12539063 1.51796875 -0.57109375 0.7703125 0 0 Z " fill="#5A85A7" transform="translate(47,26)"/>
<path d="M0 0 C0.99 0.33 1.98 0.66 3 1 C-2.33333333 5.66666667 -7.66666667 10.33333333 -13 15 C-13.99 14.34 -14.98 13.68 -16 13 C-14.2711195 11.58298411 -12.54188254 10.16640314 -10.8125 8.75 C-9.84957031 7.96109375 -8.88664062 7.1721875 -7.89453125 6.359375 C-6.46173828 5.19148438 -6.46173828 5.19148438 -5 4 C-3.67548828 2.83210938 -3.67548828 2.83210938 -2.32421875 1.640625 C-1.55722656 1.09921875 -0.79023437 0.5578125 0 0 Z " fill="#577D9E" transform="translate(99,88)"/>
<path d="M0 0 C1.4589426 0.47730838 2.91713496 0.95691042 4.375 1.4375 C5.18710938 1.70433594 5.99921875 1.97117187 6.8359375 2.24609375 C9 3 9 3 11 4 C11 4.66 11 5.32 11 6 C5.32723489 6.29341888 2.00932754 6.00559652 -3 3 C-2.01 2.67 -1.02 2.34 0 2 C0 1.34 0 0.68 0 0 Z " fill="#8AD8E8" transform="translate(98,113)"/>
<path d="M0 0 C3 1 3 1 4.6875 3.9375 C6 7 6 7 6 9 C6.66 9 7.32 9 8 9 C9.7143618 10.95927063 11.38405168 12.95880212 13 15 C12.67 15.66 12.34 16.32 12 17 C10.72486237 15.92173635 9.45507431 14.83714481 8.1875 13.75 C7.47980469 13.14671875 6.77210938 12.5434375 6.04296875 11.921875 C2.04429144 8.16021298 0.62436188 5.49438452 0 0 Z " fill="#6FC4DD" transform="translate(134,162)"/>
<path d="M0 0 C-1.52394795 4.20532472 -4.6152865 6.25004166 -8.125 8.75 C-8.96998047 9.36681641 -8.96998047 9.36681641 -9.83203125 9.99609375 C-11.21601634 11.00476085 -12.60730541 12.00339286 -14 13 C-14 10 -14 10 -11.9375 7.625 C-3.4047619 0 -3.4047619 0 0 0 Z " fill="#3A5C84" transform="translate(93,75)"/>
<path d="M0 0 C0.99 0.495 0.99 0.495 2 1 C2.625 3.5625 2.625 3.5625 3 6 C3.99 6 4.98 6 6 6 C6.66 11.28 7.32 16.56 8 22 C6.30553354 19.4583003 5.47159532 17.7675086 4.5625 14.9375 C4.30984375 14.15375 4.0571875 13.37 3.796875 12.5625 C2.49772891 8.38485374 1.23541665 4.19691187 0 0 Z " fill="#90DAEA" transform="translate(117,92)"/>
<path d="M0 0 C0.33 0 0.66 0 1 0 C1.33 4.29 1.66 8.58 2 13 C-0.97 12.505 -0.97 12.505 -4 12 C-4 10.68 -4 9.36 -4 8 C-3.01 7.67 -2.02 7.34 -1 7 C-1.020625 6.030625 -1.04125 5.06125 -1.0625 4.0625 C-1 1 -1 1 0 0 Z " fill="#7ED0E3" transform="translate(53,44)"/>
<path d="M0 0 C0.721875 0.103125 1.44375 0.20625 2.1875 0.3125 C2.1875 1.6325 2.1875 2.9525 2.1875 4.3125 C-1.1125 5.6325 -4.4125 6.9525 -7.8125 8.3125 C-7.8125 5.3125 -7.8125 5.3125 -5.625 2.625 C-2.8125 0.3125 -2.8125 0.3125 0 0 Z " fill="#3C5F86" transform="translate(37.8125,13.6875)"/>
<path d="M0 0 C3.07692057 2.76922851 4.77800007 5.02850024 6 9 C6 12 6 12 5 14 C4.34 14 3.68 14 3 14 C2.49528803 12.23050388 1.99639315 10.45934777 1.5 8.6875 C1.2215625 7.70136719 0.943125 6.71523437 0.65625 5.69921875 C0 3 0 3 0 0 Z " fill="#4BA1CA" transform="translate(131,160)"/>
<path d="M0 0 C3.59573661 4.28063882 6.12853191 8.6864257 5.8125 14.375 C5.4103125 15.674375 5.4103125 15.674375 5 17 C4.34 17.33 3.68 17.66 3 18 C2.95101562 17.31292969 2.90203125 16.62585938 2.8515625 15.91796875 C2.77679688 15.01691406 2.70203125 14.11585938 2.625 13.1875 C2.55539063 12.29417969 2.48578125 11.40085938 2.4140625 10.48046875 C2.13354964 7.75601501 2.13354964 7.75601501 0 5 C-0.125 2.3125 -0.125 2.3125 0 0 Z " fill="#B3E9F3" transform="translate(188,167)"/>
<path d="M0 0 C0.66 0 1.32 0 2 0 C4.05307377 2.13203815 4.93337363 3.48031428 5.3125 6.4375 C4.97109272 9.2370397 4.16894573 11.44293123 3 14 C2.34 14 1.68 14 1 14 C0.67 9.38 0.34 4.76 0 0 Z " fill="#4EABCF" transform="translate(176,159)"/>
<path d="M0 0 C5.54362725 0.51971505 10.81636839 3.40883826 14.40234375 7.6640625 C15.33615779 9.06644515 16.17886601 10.5288016 17 12 C13.74185546 10.48054048 10.87885229 8.62543939 7.9375 6.5625 C7.08027344 5.96566406 6.22304687 5.36882812 5.33984375 4.75390625 C3.36718501 3.27523551 1.67686943 1.79782394 0 0 Z " fill="#85D6E7" transform="translate(91,66)"/>
<path d="M0 0 C4.49097541 1.34864127 8.32611257 3.14064831 12.375 5.5 C13.43460938 6.1084375 14.49421875 6.716875 15.5859375 7.34375 C16.38257812 7.8903125 17.17921875 8.436875 18 9 C18 9.66 18 10.32 18 11 C13.59964093 9.6961899 10.03959815 7.98726447 6.1875 5.5 C5.23230469 4.8915625 4.27710938 4.283125 3.29296875 3.65625 C1 2 1 2 0 0 Z " fill="#6BC0D7" transform="translate(26,49)"/>
<path d="M0 0 C-6.93 5.445 -6.93 5.445 -14 11 C-14 6.97802227 -12.7067141 5.92040205 -10 3 C-4.72 -1.18 -4.72 -1.18 0 0 Z " fill="#527C9D" transform="translate(38,20)"/>
<path d="M0 0 C4.59306496 1.4859916 7.43569245 3.85014682 11 7 C9 8 9 8 7.125 7.58203125 C1.33202907 5.48420906 1.33202907 5.48420906 -0.5 2.8125 C-0.665 2.214375 -0.83 1.61625 -1 1 C-0.67 0.67 -0.34 0.34 0 0 Z " fill="#85D6E7" transform="translate(84,103)"/>
<path d="M0 0 C3.6885789 2.69166568 5.7875172 5.03596832 8 9 C9.62887655 11.36211704 11.31487652 13.67726223 13 16 C8.98887459 14.44522891 6.92818036 11.85771211 4.25 8.5625 C3.05117187 7.11037109 3.05117187 7.11037109 1.828125 5.62890625 C0 3 0 3 0 0 Z " fill="#55AED2" transform="translate(73,96)"/>
<path d="M0 0 C3.42771135 3.9173844 8 9.52151811 8 15 C7.01 15 6.02 15 5 15 C4.16013916 13.06532058 3.32831973 11.12714871 2.5 9.1875 C2.0359375 8.10855469 1.571875 7.02960938 1.09375 5.91796875 C0 3 0 3 0 0 Z " fill="#A7E7F2" transform="translate(115,83)"/>
<path d="M0 0 C8.92307692 1.20118343 8.92307692 1.20118343 11 2 C11.33 2.99 11.66 3.98 12 5 C10.741875 4.87625 9.48375 4.7525 8.1875 4.625 C7.12595703 4.52058594 7.12595703 4.52058594 6.04296875 4.4140625 C4 4 4 4 1 2 C0.67 3.32 0.34 4.64 0 6 C0 4.02 0 2.04 0 0 Z " fill="#74CBE2" transform="translate(130,128)"/>
<path d="M0 0 C1.32 0 2.64 0 4 0 C4 1.32 4 2.64 4 4 C0.66666667 5.33333333 -2.66666667 6.66666667 -6 8 C-5.09970429 6.65555841 -4.17911978 5.32468562 -3.25 4 C-2.48429687 2.88625 -2.48429687 2.88625 -1.703125 1.75 C-0.86007813 0.88375 -0.86007813 0.88375 0 0 Z " fill="#31507C" transform="translate(99,84)"/>
<path d="M0 0 C-0.33 1.98 -0.66 3.96 -1 6 C-1.33 5.01 -1.66 4.02 -2 3 C-4.31 4.65 -6.62 6.3 -9 8 C-8.66896829 4.93795671 -8.39949096 3.39949096 -6.1875 1.1875 C-4 0 -4 0 0 0 Z " fill="#5886A6" transform="translate(143,136)"/>
<path d="M0 0 C2.30447608 3.45671412 2.4361206 5.40110437 2.75 9.5 C2.84796875 10.6446875 2.9459375 11.789375 3.046875 12.96875 C3 16 3 16 1 19 C0.25492456 12.62694402 -0.10349817 6.41688675 0 0 Z " fill="#73C3DB" transform="translate(54,45)"/>
<path d="M0 0 C1.65 0 3.3 0 5 0 C5 2.97 5 5.94 5 9 C1.7457985 6.16569547 0.4793247 4.31392226 0 0 Z " fill="#348EBD" transform="translate(103,84)"/>
<path d="M0 0 C4.25 6.375 4.25 6.375 4.125 11.1875 C4.10695312 12.08855469 4.08890625 12.98960937 4.0703125 13.91796875 C4.03550781 14.94857422 4.03550781 14.94857422 4 16 C3.34 15.67 2.68 15.34 2 15 C1.3671875 12.890625 1.3671875 12.890625 0.875 10.25 C0.70742187 9.38890625 0.53984375 8.5278125 0.3671875 7.640625 C0.0076009 5.05466179 -0.06564041 2.60686191 0 0 Z " fill="#A9E6F2" transform="translate(129,131)"/>
<path d="M0 0 C2.94995547 3.45856848 5.22675738 6.80021485 7 11 C6.67 11.66 6.34 12.32 6 13 C4.98528829 11.78294994 3.9887539 10.55073116 3 9.3125 C2.443125 8.62800781 1.88625 7.94351563 1.3125 7.23828125 C-0.22741897 4.61216944 -0.25168194 2.99396644 0 0 Z " fill="#67BED7" transform="translate(68,95)"/>
<path d="M0 0 C3 1 3 1 3 1 Z M-2 1 C-1.34 1.33 -0.68 1.66 0 2 C-3.61328125 6.6875 -3.61328125 6.6875 -5 8 C-5.99 8 -6.98 8 -8 8 C-8.33 8.99 -8.66 9.98 -9 11 C-9.99 10.67 -10.98 10.34 -12 10 C-8.7 7.03 -5.4 4.06 -2 1 Z " fill="#3D6589" transform="translate(99,83)"/>
<path d="M0 0 C0.66 0.33 1.32 0.66 2 1 C2.33 2.32 2.66 3.64 3 5 C0.03 5.66 -2.94 6.32 -6 7 C-4 3 -4 3 -1.875 2.25 C-1.25625 2.1675 -0.6375 2.085 0 2 C0 1.34 0 0.68 0 0 Z " fill="#395D83" transform="translate(179,175)"/>
<path d="M0 0 C3.375 0.75 3.375 0.75 7 2 C7.66 3.32 8.32 4.64 9 6 C5.7 5.01 2.4 4.02 -1 3 C-0.67 2.01 -0.34 1.02 0 0 Z " fill="#43A1CC" transform="translate(143,137)"/>
<path d="M0 0 C5.39795989 1.15058556 10.70987333 2.42421759 16 4 C16 4.33 16 4.66 16 5 C14.741875 5.020625 13.48375 5.04125 12.1875 5.0625 C11.47980469 5.07410156 10.77210937 5.08570313 10.04296875 5.09765625 C8 5 8 5 5 4 C5 3.34 5 2.68 5 2 C3.35 2 1.7 2 0 2 C0 1.34 0 0.68 0 0 Z " fill="#88D9E9" transform="translate(64,57)"/>
<path d="M0 0 C0.66 1.32 1.32 2.64 2 4 C1.34 4 0.68 4 0 4 C-0.268125 4.928125 -0.53625 5.85625 -0.8125 6.8125 C-1.91148371 9.76240366 -2.62418561 11.05615186 -5 13 C-4.39254603 8.14036821 -2.27241033 4.2594482 0 0 Z " fill="#6389A5" transform="translate(50,38)"/>
<path d="M0 0 C9.59453303 2.89066059 9.59453303 2.89066059 13 6 C7.77895216 6.63671315 5.32292214 5.23234994 1.3203125 2.19140625 C0.88460937 1.79824219 0.44890625 1.40507812 0 1 C0 0.67 0 0.34 0 0 Z " fill="#69C4DE" transform="translate(148,136)"/>
<path d="M0 0 C0.99 0 1.98 0 3 0 C3.33 0.99 3.66 1.98 4 3 C2.68 4.32 1.36 5.64 0 7 C-0.66 5.35 -1.32 3.7 -2 2 C-1.34 1.34 -0.68 0.68 0 0 Z " fill="#93D3E3" transform="translate(166,187)"/>
<path d="M0 0 C0.66 0.33 1.32 0.66 2 1 C0.61860662 2.3482881 -0.7807648 3.67817378 -2.1875 5 C-2.96480469 5.7425 -3.74210938 6.485 -4.54296875 7.25 C-7.33045204 9.23536171 -8.65781368 9.37992882 -12 9 C-11.01 8.34 -10.02 7.68 -9 7 C-7.42997218 5.80146408 -5.86799197 4.59234154 -4.3125 3.375 C-3.50425781 2.74335938 -2.69601563 2.11171875 -1.86328125 1.4609375 C-1.24839844 0.97882813 -0.63351563 0.49671875 0 0 Z " fill="#56789A" transform="translate(161,169)"/>
<path d="M0 0 C4.22489602 0.53280216 6.54080716 1.87678199 9.8125 4.5625 C10.60269531 5.20316406 11.39289063 5.84382812 12.20703125 6.50390625 C12.79871094 6.99761719 13.39039063 7.49132812 14 8 C13.01 8.33 12.02 8.66 11 9 C8.80859375 7.63671875 8.80859375 7.63671875 6.4375 5.6875 C5.65246094 5.05199219 4.86742187 4.41648438 4.05859375 3.76171875 C2 2 2 2 0 0 Z " fill="#A4E5F0" transform="translate(157,137)"/>
<path d="M0 0 C5.75 0.875 5.75 0.875 8 2 C8 2.66 8 3.32 8 4 C5.03 3.67 2.06 3.34 -1 3 C-0.67 2.01 -0.34 1.02 0 0 Z " fill="#51ADD2" transform="translate(79,66)"/>
<path d="M0 0 C2.4375 0.8125 2.4375 0.8125 5 2 C5.33 2.99 5.66 3.98 6 5 C3.36 4.67 0.72 4.34 -2 4 C-1.34 2.68 -0.68 1.36 0 0 Z " fill="#87D7E7" transform="translate(114,120)"/>
<path d="M0 0 C0.33 0.66 0.66 1.32 1 2 C0.67 2.66 0.34 3.32 0 4 C0.66 4 1.32 4 2 4 C2 4.99 2 5.98 2 7 C0.68 7.33 -0.64 7.66 -2 8 C-2.6875 6.25 -2.6875 6.25 -3 4 C-1.5625 1.75 -1.5625 1.75 0 0 Z " fill="#7DCDE0" transform="translate(38,6)"/>
<path d="M0 0 C0.53625 0.185625 1.0725 0.37125 1.625 0.5625 C4.61990614 1.11419324 7.03745829 0.60597444 10 0 C7.83370204 2.49124265 6.30623023 3.59924482 3 4 C0.75 3.5625 0.75 3.5625 -1 3 C-0.67 2.01 -0.34 1.02 0 0 Z " fill="#2F4972" transform="translate(172,180)"/>
<path d="M0 0 C3.0831351 1.19899698 6.06279492 2.47700477 9 4 C9 4.66 9 5.32 9 6 C5.21213403 5.4739075 2.82847776 4.61896089 0 2 C0 1.34 0 0.68 0 0 Z " fill="#8CDBEA" transform="translate(36,44)"/>
<path d="M0 0 C0.99 0.33 1.98 0.66 3 1 C0.94766315 3.2477975 -0.00667261 4.0022242 -3 5 C-2.34 5.66 -1.68 6.32 -1 7 C-2.32 7 -3.64 7 -5 7 C-4.6189482 4.23737447 -4.16402868 3.15856106 -2.125 1.1875 C-1.42375 0.795625 -0.7225 0.40375 0 0 Z " fill="#264F79" transform="translate(166,182)"/>
<path d="M0 0 C1.32 0.33 2.64 0.66 4 1 C0.71195019 3.91227269 -1.59885603 5.49701212 -6 6 C-5.34 4.68 -4.68 3.36 -4 2 C-2.68 2 -1.36 2 0 2 C0 1.34 0 0.68 0 0 Z " fill="#405A81" transform="translate(166,164)"/>
<path d="M0 0 C3.39417765 3.12621626 5.6062718 5.56541027 7 10 C6.34 10 5.68 10 5 10 C4.67 9.01 4.34 8.02 4 7 C3.319375 6.525625 2.63875 6.05125 1.9375 5.5625 C1.298125 5.046875 0.65875 4.53125 0 4 C0 2.68 0 1.36 0 0 Z " fill="#76C8DF" transform="translate(178,157)"/>
<path d="M0 0 C0.33 0.99 0.66 1.98 1 3 C-4.625 7 -4.625 7 -8 7 C-8 6.34 -8 5.68 -8 5 C-6.36935236 3.94228261 -4.69719127 2.94726954 -3 2 C-2.01 1.34 -1.02 0.68 0 0 Z " fill="#3B5E83" transform="translate(116,116)"/>
<path d="M0 0 C0.33 0 0.66 0 1 0 C0.67 2.31 0.34 4.62 0 7 C-1.32 7 -2.64 7 -4 7 C-2.92598892 4.08482708 -2.22189824 2.22189824 0 0 Z " fill="#234674" transform="translate(98,107)"/>
<path d="M0 0 C2.12038635 2.61514317 4.13091744 5.19637616 6 8 C5.625 10.1875 5.625 10.1875 5 12 C5 11.01 5 10.02 5 9 C4.34 9 3.68 9 3 9 C0.56839395 5.63316085 0 4.26649636 0 0 Z " fill="#88D3E6" transform="translate(185,167)"/>
<path d="M0 0 C-6.5 4 -6.5 4 -11 4 C-11 3.34 -11 2.68 -11 2 C-9.54494642 1.47007308 -8.08581873 0.9513211 -6.625 0.4375 C-5.81289062 0.14746094 -5.00078125 -0.14257812 -4.1640625 -0.44140625 C-2 -1 -2 -1 0 0 Z " fill="#4C7A9D" transform="translate(79,68)"/>
<path d="M0 0 C0.33 0 0.66 0 1 0 C1 1.98 1 3.96 1 6 C-0.98 6.99 -0.98 6.99 -3 8 C-2.45276317 4.62537285 -1.9451 2.91765 0 0 Z " fill="#23426F" transform="translate(35,35)"/>
<path d="M0 0 C0.33 0.66 0.66 1.32 1 2 C-0.30406884 4.01920337 -1.63823419 6.01924973 -3 8 C-3.33 8 -3.66 8 -4 8 C-4 5.69 -4 3.38 -4 1 C-2.68 0.67 -1.36 0.34 0 0 Z " fill="#36567E" transform="translate(40,33)"/>
<path d="M0 0 C1.32 0 2.64 0 4 0 C6 3 6 3 5.625 5.1875 C5.41875 5.785625 5.2125 6.38375 5 7 C2.47411298 4.63707344 1.11179163 3.33537489 0 0 Z " fill="#6EC0DA" transform="translate(160,189)"/>
<path d="M0 0 C2.93200474 2.85276137 5.64315404 5.65079784 8 9 C5.04709864 7.62901008 2.39580248 6.22467373 0 4 C0 2.68 0 1.36 0 0 Z " fill="#57B1CF" transform="translate(140,180)"/>
<path d="M0 0 C2.43929746 1.92576115 4.80090595 3.80090595 7 6 C1.46153846 5.38461538 1.46153846 5.38461538 -0.875 3.4375 C-1.24625 2.963125 -1.6175 2.48875 -2 2 C-1.34 1.34 -0.68 0.68 0 0 Z " fill="#6AC2DC" transform="translate(35,44)"/>
<path d="M0 0 C5.445 1.485 5.445 1.485 11 3 C11 3.33 11 3.66 11 4 C7.75 4.25 7.75 4.25 4 4 C2.68 2.68 1.36 1.36 0 0 Z " fill="#86D1E4" transform="translate(151,182)"/>
<path d="M0 0 C0.99 0.33 1.98 0.66 3 1 C2.625 3.9375 2.625 3.9375 2 7 C1.01 7.495 1.01 7.495 0 8 C0 5.36 0 2.72 0 0 Z " fill="#AAE4F0" transform="translate(191,177)"/>
<path d="M0 0 C5.82980769 3.47307692 5.82980769 3.47307692 6.69140625 6.140625 C6.79324219 6.75421875 6.89507812 7.3678125 7 8 C5.8274869 7.04882866 4.66212985 6.08882991 3.5 5.125 C2.8503125 4.59132813 2.200625 4.05765625 1.53125 3.5078125 C1.0259375 3.01023437 0.520625 2.51265625 0 2 C0 1.34 0 0.68 0 0 Z " fill="#8BDAE9" transform="translate(43,5)"/>
<path d="M0 0 C0.66 0 1.32 0 2 0 C1.43628586 3.26954202 0.50037734 4.82575883 -2 7 C-2.66 6.67 -3.32 6.34 -4 6 C-2.7260411 3.96166576 -1.38938077 1.96147874 0 0 Z " fill="#32527F" transform="translate(157,148)"/>
<path d="M0 0 C-2.6855594 2.6855594 -5.37621328 3.06049974 -9 4 C-8.67 3.01 -8.34 2.02 -8 1 C-5.29120665 -0.35439668 -2.99066732 -0.06501451 0 0 Z " fill="#6A94B1" transform="translate(79,66)"/>
</svg>
